<svg width="170" height="52" viewBox="0 0 170 52" fill="none" xmlns="http://www.w3.org/2000/svg">
<g clip-path="url(#clip0)">
<path d="M75.5408 38.2439H82.0901V39.9536H77.5923V41.9525H81.6692V43.6096H77.5923V45.7927H82.1164V47.5024H75.5671V38.2439H75.5408Z" fill="#1D458B"/>
<path d="M83.563 43.7938C83.563 41.8211 84.3521 39.9799 86.693 39.9799C87.9555 39.9799 88.6131 40.4534 88.9024 40.9005V37.2708H90.8751V47.5024H90.0334L89.5863 46.3188C89.1128 47.0553 88.3764 47.6339 86.7193 47.6339C84.431 47.6339 83.563 45.7665 83.563 43.7938ZM88.9813 43.7938C88.9813 42.5576 88.7709 41.6633 87.3506 41.6633C85.9828 41.6633 85.6146 42.5312 85.6146 43.7938C85.6146 45.0826 85.9828 45.9769 87.3243 45.9769C88.7183 45.9769 88.9813 45.1089 88.9813 43.7938Z" fill="#1D458B"/>
<path d="M92.9267 44.1093V40.1113H94.8994V44.2934C94.8994 45.3455 95.0835 45.9768 96.3197 45.9768C97.5559 45.9768 97.8452 45.3455 97.8452 44.2934V40.1113H99.8179V47.5286H99.0025L98.5554 46.3976C98.0557 47.1604 97.3455 47.6601 95.741 47.6601C93.4264 47.6338 92.9267 46.1872 92.9267 44.1093Z" fill="#1D458B"/>
<path d="M101.633 43.8199C101.633 41.8472 102.422 39.9797 105.368 39.9797C107.709 39.9797 108.84 41.216 108.84 43.0571H106.788C106.683 42.1365 106.315 41.6368 105.341 41.6368C104.053 41.6368 103.579 42.5311 103.579 43.7936C103.579 45.0298 104.026 45.9241 105.341 45.9241C106.315 45.9241 106.683 45.398 106.788 44.5827L108.84 44.609C108.84 46.4238 107.761 47.6074 105.42 47.6074C102.396 47.6337 101.633 45.7926 101.633 43.8199Z" fill="#1D458B"/>
<path d="M110.234 45.3191C110.234 43.9251 111.154 43.2938 113.337 43.1097L115.31 42.9256C115.284 42.1102 114.916 41.5053 113.811 41.5053C112.759 41.5053 112.443 41.9787 112.443 42.7152L110.47 42.7415C110.47 41.216 111.102 39.9797 113.758 39.9797C116.836 39.9797 117.283 41.3475 117.283 43.3202V47.5285H116.441L115.994 46.3449C115.547 47.0288 114.679 47.6601 113.18 47.6601C111.523 47.6338 110.234 46.8973 110.234 45.3191ZM115.284 44.267L113.627 44.4512C112.601 44.5564 112.285 44.8194 112.285 45.2139C112.285 45.7137 112.68 46.0819 113.653 46.0819C114.889 46.0819 115.284 45.2402 115.284 44.267Z" fill="#1D458B"/>
<path d="M124.042 44.609L126.094 44.6353C126.094 46.2398 125.252 47.3445 123.438 47.6075C123.411 49.6065 122.385 49.8958 121.333 49.8958H120.176V48.2914H121.097C121.491 48.2914 121.649 48.0284 121.649 47.5549C119.492 47.1867 118.914 45.5822 118.914 43.8463C118.914 41.8736 119.703 40.0061 122.648 40.0061C124.989 40.0061 126.12 41.2423 126.12 43.0835H124.069C123.964 42.1629 123.595 41.6632 122.622 41.6632C121.333 41.6632 120.86 42.5574 120.86 43.82C120.86 45.0562 121.307 45.9505 122.622 45.9505C123.569 45.9242 123.937 45.3981 124.042 44.609Z" fill="#1D458B"/>
<path d="M127.488 45.3192C127.488 43.9252 128.409 43.2939 130.592 43.1098L132.565 42.9257C132.538 42.1103 132.17 41.5053 131.065 41.5053C130.013 41.5053 129.698 41.9788 129.698 42.7152L127.725 42.7415C127.725 41.216 128.356 39.9798 131.013 39.9798C134.09 39.9798 134.537 41.3475 134.537 43.3202V47.5286H133.696L133.248 46.345C132.801 47.0288 131.933 47.6601 130.434 47.6601C128.777 47.6338 127.488 46.8973 127.488 45.3192ZM130.224 38.691C129.698 38.691 129.566 38.9277 129.566 39.3485H128.014L127.988 38.954C128.014 38.086 128.225 37.218 129.671 37.218C130.697 37.218 131.355 37.8756 132.038 37.8756C132.565 37.8756 132.67 37.6389 132.67 37.218H134.222L134.248 37.6126C134.222 38.5068 133.985 39.3748 132.565 39.3748C131.565 39.3485 130.881 38.691 130.224 38.691ZM132.538 44.2671L130.881 44.4512C129.855 44.5564 129.54 44.8194 129.54 45.214C129.54 45.7137 129.934 46.082 130.907 46.082C132.144 46.082 132.538 45.2403 132.538 44.2671Z" fill="#1D458B"/>
<path d="M136.142 43.7936C136.142 41.8472 136.957 39.9797 139.824 39.9797C142.665 39.9797 143.506 41.8209 143.506 43.7936C143.506 45.7926 142.665 47.6338 139.798 47.6338C136.957 47.6338 136.142 45.7663 136.142 43.7936ZM141.586 43.7936C141.586 42.61 141.244 41.6631 139.85 41.6631C138.483 41.6631 138.114 42.5837 138.114 43.7936C138.114 45.0298 138.483 45.9241 139.824 45.9241C141.165 45.9241 141.586 45.0298 141.586 43.7936Z" fill="#1D458B"/>
<path d="M79.5387 15.2029C76.5928 13.4932 72.9368 13.4932 69.9909 15.2029H69.9646C68.0445 16.3076 66.8609 18.3855 66.8609 20.5949V24.7244C66.8609 26.9338 68.0445 29.0117 69.9646 30.1164L69.9909 30.1427C71.4639 30.9844 73.0946 31.4052 74.7517 31.4052C76.4087 31.4052 78.0395 30.9844 79.5124 30.1427L79.5387 30.1164C81.4588 29.0117 82.6424 26.9338 82.6424 24.7244V20.5949C82.6424 18.3592 81.4588 16.3076 79.5387 15.2029ZM78.7496 24.6981C78.7496 25.5135 78.3025 26.3025 77.5923 26.7234L77.566 26.7497C75.8301 27.7492 73.6733 27.7492 71.9636 26.7497L71.9373 26.7234C71.2271 26.3025 70.78 25.5398 70.78 24.6981V20.5949C70.78 19.7795 71.2271 18.9905 71.9373 18.5696H71.9636C72.8316 18.0699 73.8048 17.8068 74.778 17.8068C75.7512 17.8068 76.7243 18.0699 77.5923 18.5696L77.6186 18.5959C78.3288 19.0168 78.7759 19.7795 78.7759 20.6212V24.6981H78.7496Z" fill="black"/>
<path d="M114.495 15.2029L114.468 15.1766C111.523 13.4932 107.893 13.4932 104.947 15.1766H104.921C103.001 16.2813 101.817 18.3592 101.817 20.5686V24.6981C101.817 26.9075 103.001 28.9854 104.921 30.0901L104.947 30.1164C106.42 30.9581 108.051 31.3789 109.708 31.3789C111.365 31.3789 112.995 30.9581 114.468 30.1164H114.495C115.81 29.3536 116.809 28.1437 117.283 26.6971L113.574 25.4609C113.39 25.9869 113.022 26.4603 112.522 26.7497H112.496C110.76 27.7492 108.603 27.7492 106.893 26.7497L106.867 26.7234C106.157 26.3025 105.71 25.5398 105.71 24.6981V24.3824H117.598V20.5949C117.598 18.3592 116.388 16.3076 114.495 15.2029ZM105.71 20.4897C105.736 19.7006 106.183 18.9904 106.867 18.5696H106.893C108.629 17.5701 110.786 17.5701 112.496 18.5696L112.522 18.5959C113.206 18.9904 113.653 19.7269 113.679 20.516H105.71V20.4897Z" fill="black"/>
<path d="M166.311 15.203C163.365 13.4934 159.709 13.4934 156.763 15.1767L156.737 15.203C154.816 16.3077 153.633 18.3856 153.633 20.595V24.7245C153.633 26.9339 154.816 29.0118 156.737 30.1165L156.763 30.1428C158.236 30.9845 159.867 31.4054 161.524 31.4054C163.181 31.4054 164.811 30.9845 166.284 30.1428L166.311 30.1165C168.231 29.0118 169.414 26.9339 169.414 24.7245V20.595C169.441 18.3593 168.231 16.3077 166.311 15.203ZM165.548 24.6982C165.548 25.5136 165.101 26.3027 164.391 26.7235L164.364 26.7498C162.628 27.7493 160.472 27.7493 158.762 26.7498L158.736 26.7235C158.025 26.3027 157.578 25.5399 157.578 24.6982V20.595C157.578 19.7797 158.025 18.9906 158.736 18.5698L158.762 18.5434C159.63 18.0437 160.603 17.7807 161.576 17.7807C162.549 17.7807 163.523 18.0437 164.391 18.5434L164.417 18.5698C165.127 18.9906 165.574 19.7534 165.574 20.595V24.6982H165.548Z" fill="black"/>
<path d="M61.1796 7.86452L60.9166 7.70671C57.8655 5.94444 54.0516 5.94444 51.0006 7.70671L50.7375 7.86452C48.6859 9.04814 47.4234 11.2575 47.4234 13.5985V13.8089V18.254V30.9844H51.3162V24.3299C52.7628 25.0926 54.3673 25.4872 55.9717 25.4872C57.6814 25.4872 59.391 25.04 60.9429 24.1721L61.2059 24.0142C63.2575 22.8306 64.52 20.6212 64.52 18.2803V13.6248C64.4937 11.2575 63.2312 9.04814 61.1796 7.86452ZM60.601 18.254C60.601 19.2272 60.0749 20.1215 59.2332 20.6212L58.9702 20.779C57.1027 21.8574 54.8144 21.8574 52.9469 20.779L52.6839 20.6212C51.8422 20.1215 51.3162 19.2272 51.3162 18.254V13.8352V13.6248C51.3162 12.6516 51.8422 11.7573 52.6839 11.2575L52.9469 11.0997C53.8675 10.5737 54.9196 10.2844 55.9454 10.2844C56.9975 10.2844 58.0233 10.5474 58.9439 11.0997L59.2069 11.2575C60.0486 11.7573 60.5747 12.6516 60.5747 13.6248V18.254H60.601Z" fill="black"/>
<path d="M143.769 14.2034C141.323 15.5974 139.824 18.2277 139.824 21.042V30.9318H143.717V21.042C143.717 19.6217 144.48 18.3066 145.716 17.5964C146.952 16.8862 148.478 16.8862 149.714 17.5964L150.819 18.2277L152.765 14.861L151.66 14.2297C149.24 12.8094 146.216 12.8094 143.769 14.2034Z" fill="black"/>
<path d="M89.823 26.3552V6.20752H85.9302V26.3552C85.9302 28.9329 88.0344 31.0371 90.6121 31.0371H91.6379V27.1443H90.6121C90.1649 27.118 89.823 26.7761 89.823 26.3552Z" fill="black"/>
<path d="M98.7395 13.4407H94.8467V31.1159H98.7395V13.4407Z" fill="black"/>
<path d="M132.512 14.8085C129.724 13.5197 126.436 13.6249 123.753 15.1767H123.727C121.807 16.2814 120.623 18.3593 120.623 20.5688V24.6982C120.623 26.9077 121.807 28.9855 123.727 30.0903L123.753 30.1166C125.226 30.9582 126.857 31.3791 128.514 31.3791C130.171 31.3791 131.802 30.9582 133.275 30.1166H133.301C135.221 29.0119 136.405 26.934 136.405 24.7245V20.5951C136.405 20.4372 136.378 20.2794 136.378 20.1479H136.405V6.33911H132.512V14.8085ZM132.512 24.6982C132.512 25.5136 132.065 26.3027 131.355 26.7235H131.328C129.592 27.723 127.436 27.723 125.726 26.7235L125.7 26.6972C124.989 26.2764 124.542 25.5136 124.542 24.6719V20.5951C124.542 19.7797 124.989 18.9906 125.7 18.5698H125.726C126.594 18.07 127.567 17.807 128.54 17.807C129.513 17.807 130.487 18.0437 131.328 18.5435L131.355 18.5698C132.065 18.9906 132.512 19.7534 132.512 20.5951V24.6982Z" fill="black"/>
<path d="M96.8984 6.20752C96.1882 6.20752 95.5307 6.57575 95.1624 7.20701C94.7942 7.81197 94.7942 8.57474 95.1624 9.206C95.5307 9.81096 96.1619 10.2055 96.8984 10.2055C97.6086 10.2055 98.2661 9.83726 98.6344 9.206C99.0026 8.60105 99.0026 7.83827 98.6344 7.20701C98.2661 6.57575 97.6086 6.20752 96.8984 6.20752Z" fill="black"/>
<path d="M15.4133 19.9109L33.562 8.96911L18.9115 0.499715C17.7542 -0.18415 16.3076 -0.18415 15.1239 0.499715L0.683882 8.94281C-0.236704 9.49516 -0.236704 10.8366 0.683882 11.3626L15.4133 19.9109Z" fill="#1FB4C3"/>
<path d="M2.1042 22.7778L15.7026 30.6422C16.5706 31.142 17.0966 32.0626 17.0966 33.0621V50.5795C17.0966 51.6579 15.9393 52.3418 14.9924 51.7894L1.39403 43.9513C0.52605 43.4515 0 42.5309 0 41.5315V23.9877C0 22.9093 1.15731 22.2517 2.1042 22.7778Z" fill="#FAA41F"/>
<path d="M33.562 8.96924L15.4133 19.9111C16.4654 20.516 17.1229 21.647 17.1229 22.857V41.9263L33.5883 32.4311C34.7456 31.7472 35.482 30.511 35.482 29.1432V12.2307C35.4557 10.8893 34.7456 9.6268 33.562 8.96924Z" fill="#EE2252"/>
</g>
<defs>
<clipPath id="clip0">
<rect width="169.441" height="52" fill="white"/>
</clipPath>
</defs>
</svg>
